<?xml version="1.0" standalone="no"?>
<!DOCTYPE svg PUBLIC "-//W3C//DTD SVG 20010904//EN"
 "http://www.w3.org/TR/2001/REC-SVG-20010904/DTD/svg10.dtd">
<svg version="1.0" xmlns="http://www.w3.org/2000/svg"
 width="935.000000pt" height="1280.000000pt" viewBox="0 0 935.000000 1280.000000"
 preserveAspectRatio="xMidYMid meet">
<metadata>
Created by potrace 1.15, written by Peter Selinger 2001-2017
</metadata>
<g transform="translate(0.000000,1280.000000) scale(0.100000,-0.100000)"
fill="#000000" stroke="none">
<path d="M6210 12786 c-890 -116 -2095 -696 -3165 -1526 -995 -771 -1824
-1760 -2344 -2799 -129 -257 -228 -515 -351 -916 -315 -1029 -418 -1998 -304
-2855 20 -148 75 -448 114 -620 238 -1050 583 -1593 1200 -1889 439 -210 1013
-285 1480 -191 471 95 894 368 1129 729 203 312 270 525 242 770 -18 151 -53
265 -155 506 -180 425 -230 629 -229 955 1 295 44 513 164 834 178 472 487
826 1021 1166 343 219 652 328 1093 385 179 24 482 24 638 1 65 -10 119 -16
121 -15 1 2 16 36 33 74 237 529 562 1216 747 1580 189 371 236 488 285 717
34 163 45 278 45 473 0 212 -16 349 -63 541 -153 623 -640 1528 -1039 1933
-124 125 -190 150 -412 156 -89 3 -186 -1 -250 -9z"/>
<path d="M6428 7210 c-293 -53 -545 -254 -724 -577 -120 -217 -165 -487 -110
-666 38 -124 195 -316 304 -371 28 -14 89 -35 135 -46 82 -19 256 -44 263 -37
2 2 -10 36 -27 77 -89 211 -89 452 0 675 33 82 102 203 152 266 16 20 29 45
29 56 0 31 29 62 63 68 19 4 67 29 108 56 203 136 479 231 755 259 54 6 99 12
101 14 7 7 -265 124 -348 151 -191 61 -283 76 -474 80 -99 2 -201 0 -227 -5z"/>
<path d="M5935 7113 c-79 -11 -240 -47 -333 -74 -204 -60 -340 -138 -477 -274
-195 -196 -250 -342 -250 -665 1 -139 4 -179 24 -253 27 -107 57 -176 105
-242 71 -99 245 -204 388 -233 72 -15 85 -15 175 0 54 9 131 27 172 40 l73 23
-61 53 c-115 100 -207 247 -251 402 -41 142 -36 473 8 557 39 74 149 254 210
343 76 112 133 182 216 268 33 34 54 61 46 61 -8 -1 -28 -4 -45 -6z"/>
<path d="M7375 6903 c-215 -28 -445 -119 -641 -255 -141 -97 -296 -277 -353
-411 -43 -99 -54 -165 -46 -276 18 -280 94 -402 371 -599 l72 -50 12 99 c26
210 113 390 265 544 99 102 200 174 333 238 48 24 101 56 117 71 27 25 35 27
75 22 61 -9 50 -9 185 -1 262 16 562 -43 847 -165 104 -44 105 -49 -22 119
-258 343 -600 588 -909 651 -92 18 -221 24 -306 13z"/>
<path d="M4742 6479 c-259 -194 -391 -370 -447 -593 -44 -175 -32 -290 49
-461 102 -216 239 -369 393 -438 111 -49 296 -59 425 -21 63 19 158 81 246
160 l63 57 -90 23 c-284 72 -474 250 -596 559 -28 69 -28 70 -21 240 8 217 44
462 78 528 15 28 -3 19 -100 -54z"/>
<path d="M7720 6074 c-223 -40 -426 -139 -561 -274 -44 -43 -70 -83 -113 -171
-120 -247 -131 -397 -47 -628 34 -94 94 -231 101 -230 3 0 21 25 40 56 46 75
189 219 269 273 198 133 417 193 686 190 82 -1 159 -2 170 -2 11 0 39 3 63 7
40 7 46 5 80 -28 20 -19 71 -50 112 -69 270 -124 539 -356 745 -644 31 -43 58
-80 59 -81 0 -1 -2 51 -6 115 -23 368 -132 735 -293 986 -179 281 -426 436
-796 501 -106 19 -404 18 -509 -1z"/>
<path d="M4111 5516 c-114 -251 -146 -454 -101 -632 44 -170 106 -259 249
-356 149 -102 292 -150 441 -149 73 0 101 5 181 34 236 86 291 143 325 338 8
50 14 92 12 94 -2 2 -41 -8 -88 -22 -109 -33 -278 -37 -380 -9 -157 43 -341
160 -383 244 -13 26 -47 90 -75 143 -64 118 -107 222 -132 314 l-18 70 -31
-69z"/>
<path d="M6023 5396 c-23 -7 -57 -23 -76 -35 -40 -24 -100 -108 -117 -165 -24
-75 6 -158 74 -204 60 -41 62 -40 58 37 -4 58 0 78 21 124 14 30 44 74 67 96
37 35 138 93 205 116 17 6 14 9 -20 22 -58 21 -162 25 -212 9z"/>
<path d="M5697 5287 c-55 -40 -102 -96 -118 -144 -25 -77 13 -213 72 -256 34
-24 98 -32 143 -17 20 6 36 15 36 18 0 4 -16 17 -35 29 -18 12 -46 44 -62 70
-25 42 -28 58 -28 128 1 55 8 99 22 140 12 33 20 61 19 62 -1 2 -23 -12 -49
-30z"/>
<path d="M6333 5286 c-143 -47 -234 -159 -217 -268 11 -67 84 -174 84 -123 0
32 63 136 101 166 84 66 205 94 339 79 41 -4 77 -6 80 -3 10 10 -96 95 -157
125 -73 36 -165 46 -230 24z"/>
<path d="M7870 5076 c-236 -42 -384 -125 -565 -317 -97 -103 -139 -178 -154
-276 -12 -78 -34 -413 -28 -420 2 -2 51 19 108 46 136 66 235 91 380 98 250
12 544 -77 763 -230 34 -24 83 -49 109 -56 52 -15 82 -45 92 -93 4 -17 29 -59
55 -92 121 -155 251 -394 324 -598 41 -113 88 -292 112 -426 9 -51 18 -91 19
-90 9 9 88 219 119 317 99 307 140 544 140 816 1 315 -46 471 -205 685 -208
281 -571 545 -848 617 -119 30 -308 39 -421 19z"/>
<path d="M5420 4995 c-48 -105 -19 -210 74 -272 70 -47 116 -43 179 15 36 34
34 42 -7 42 -48 0 -85 16 -124 53 -42 40 -61 75 -83 152 l-17 60 -22 -50z"/>
<path d="M6465 5015 c-102 -38 -156 -119 -156 -234 0 -39 2 -75 5 -80 3 -5 22
7 42 26 62 58 128 86 220 91 123 7 227 -29 362 -125 34 -24 62 -42 62 -40 0 2
-7 28 -16 58 -40 134 -122 242 -221 289 -61 30 -234 38 -298 15z"/>
<path d="M6514 4690 c-50 -16 -120 -85 -153 -152 -17 -34 -29 -63 -26 -66 2
-3 25 1 50 8 27 8 77 11 127 8 98 -5 166 -34 247 -105 57 -50 139 -168 173
-250 12 -29 25 -53 29 -53 6 0 21 74 33 165 8 62 -11 163 -45 232 -58 120
-197 211 -332 219 -40 2 -86 -1 -103 -6z"/>
<path d="M5351 4639 c21 -92 67 -143 145 -160 89 -20 150 13 164 91 4 22 6 40
5 40 -1 0 -24 -9 -50 -21 -36 -16 -58 -19 -89 -15 -47 8 -110 42 -145 80 -34
36 -40 33 -30 -15z"/>
<path d="M4070 4511 c0 -55 23 -224 40 -296 50 -207 197 -387 361 -442 76 -25
316 -26 408 0 156 43 264 123 374 278 81 115 95 190 56 315 -36 117 -29 116
-125 25 -65 -62 -107 -91 -177 -126 -125 -62 -210 -79 -361 -71 -103 4 -124 8
-155 29 -20 13 -67 42 -106 64 -92 54 -187 124 -257 191 -50 47 -58 52 -58 33z"/>
<path d="M5702 4430 c-27 -59 -127 -91 -215 -67 -27 7 -28 7 -13 -16 42 -64
154 -87 217 -44 49 33 64 70 50 118 -14 47 -22 49 -39 9z"/>
<path d="M6410 4387 c-31 -13 -78 -38 -105 -57 l-49 -34 67 -22 c262 -88 365
-350 292 -739 -6 -27 1 -23 68 46 187 191 232 400 130 607 -91 186 -247 263
-403 199z"/>
<path d="M5829 4324 c3 -44 1 -48 -49 -95 l-52 -49 36 0 c73 0 126 50 126 119
0 20 -8 36 -26 50 -15 12 -29 21 -33 21 -3 0 -4 -21 -2 -46z"/>
<path d="M5457 4170 c-3 -8 -15 -46 -27 -85 -69 -223 -250 -378 -500 -431 -80
-17 -269 -22 -360 -9 l-55 7 55 -57 c180 -186 435 -278 652 -234 140 28 178
47 264 133 166 166 213 333 139 491 -33 68 -161 209 -168 185z"/>
<path d="M6165 4096 c-22 -8 -52 -18 -66 -24 l-27 -11 53 -53 c88 -91 135
-227 120 -348 -14 -118 -84 -279 -174 -399 -23 -30 -39 -56 -37 -58 8 -8 188
57 234 84 205 121 311 363 257 591 -26 110 -81 187 -153 218 -42 17 -153 17
-207 0z"/>
<path d="M5745 4041 c73 -188 70 -328 -11 -481 -63 -121 -201 -249 -355 -331
-57 -31 -59 -33 -37 -42 12 -5 68 -11 123 -14 202 -11 384 56 519 191 82 82
110 132 131 232 55 258 -56 417 -313 452 -56 8 -62 7 -57 -7z"/>
<path d="M7523 4035 c-192 -36 -326 -89 -403 -161 -54 -51 -186 -222 -270
-350 l-52 -79 69 -7 c329 -36 540 -135 762 -360 112 -113 198 -237 282 -405
l71 -141 45 -12 c109 -27 120 -74 37 -161 l-35 -35 12 -100 c15 -123 6 -430
-16 -569 -37 -237 -92 -420 -212 -704 -15 -35 322 229 492 386 347 319 574
665 631 961 33 171 8 446 -62 694 -55 193 -174 450 -270 585 -168 236 -432
403 -722 459 -90 17 -261 17 -359 -1z"/>
<path d="M4387 3400 c-13 -230 -56 -401 -151 -595 -35 -71 -93 -170 -127 -220
-125 -176 -354 -382 -573 -515 -90 -54 -265 -139 -327 -159 -36 -11 -37 -13
-41 -69 -4 -55 -38 -141 -65 -163 -23 -20 -85 11 -155 79 -37 35 -71 62 -76
58 -5 -3 -87 -10 -183 -15 -413 -23 -833 39 -1244 185 -120 43 -310 125 -382
166 -29 17 -53 27 -53 23 0 -10 200 -275 283 -375 568 -683 1125 -1090 1612
-1176 161 -29 479 -8 735 47 436 95 876 308 1134 550 220 205 368 526 415 899
35 282 33 430 -10 575 -52 172 -128 277 -286 391 -146 105 -288 224 -404 336
l-96 93 -6 -115z"/>
<path d="M6668 3280 c-62 -11 -129 -33 -253 -85 -144 -61 -345 -157 -345 -165
0 -4 13 -13 28 -19 49 -20 175 -107 242 -168 257 -229 389 -526 407 -918 5
-114 -7 -302 -23 -356 -3 -11 9 -25 36 -43 46 -30 93 -96 88 -122 -4 -25 -60
-60 -126 -81 -50 -16 -57 -22 -71 -58 -30 -78 -119 -253 -175 -342 -162 -263
-421 -529 -691 -710 -49 -33 -105 -68 -123 -78 -19 -9 -32 -19 -29 -21 7 -8
352 52 528 91 722 161 1190 391 1405 692 114 158 234 489 289 793 22 123 32
492 16 612 -37 276 -142 497 -324 681 -77 78 -200 168 -294 215 -137 70 -420
110 -585 82z"/>
<path d="M5190 3047 c0 -2 24 -50 54 -108 177 -341 208 -701 89 -1059 -66
-200 -186 -418 -318 -578 l-52 -63 21 -42 c12 -26 22 -68 24 -109 l4 -67 -42
-12 c-33 -10 -54 -10 -97 -1 l-55 11 -82 -58 c-326 -235 -729 -401 -1165 -482
-122 -22 -349 -49 -424 -49 l-52 -1 35 -18 c132 -70 619 -238 865 -299 665
-166 1185 -144 1524 65 524 322 984 922 1075 1403 57 299 1 621 -153 884 -107
183 -346 384 -559 471 -64 26 -260 62 -520 94 -180 23 -172 22 -172 18z"/>
</g>
</svg>
